<?xml version="1.0" encoding="UTF-8"?>
<!-- Generated by Pixelmator Pro 3.6.18 -->
<svg width="500" height="500" viewBox="0 0 500 500" xmlns="http://www.w3.org/2000/svg">
    <g id="Group">
        <path id="Rectangle-copy" fill="#000000" fill-rule="evenodd" stroke="none" d="M 56 165.597015 L 450.962677 165.597015 L 450.962677 105 L 56 105 Z"/>
        <path id="Rectangle-copy-2" fill="#000000" fill-rule="evenodd" stroke="none" d="M 56 279.216431 L 450.962677 279.216431 L 450.962677 218.619415 L 56 218.619415 Z"/>
        <path id="Rectangle-copy-3" fill="#000000" fill-rule="evenodd" stroke="none" d="M 56 395 L 450.962677 395 L 450.962677 334.402985 L 56 334.402985 Z"/>
    </g>
    <g id="medal-color-icon">
        <path id="Path" fill="#e37e00" fill-rule="evenodd" stroke="none" d="M 390.045532 170 L 388.029663 173.313751 L 360.165039 219.005554 L 258.371521 219.005554 L 228.62413 170.002502 Z"/>
        <path id="path1" fill="#ff6600" fill-rule="evenodd" stroke="none" d="M 392.220123 170 L 439.934662 229.84848 L 383.996063 325.881226 C 369.881927 309.701233 350.593781 298.155945 328.712341 293.81427 L 390.204865 173.313751 L 389.722473 174.103607 L 391.985779 170 L 392.220123 170 Z"/>
        <path id="path2" fill="#d0401b" fill-rule="evenodd" stroke="none" d="M 234.653595 325.903748 L 178.735001 229.84848 L 226.233337 170.002502 L 226.384567 170.002502 L 230.475021 176.99054 L 229.63269 175.602692 L 290.094177 293.788025 C 268.146515 298.110352 248.798996 309.678711 234.653595 325.903748 Z"/>
        <path id="path3" fill="#f5c800" fill-rule="evenodd" stroke="none" d="M 408.377625 390.956177 C 408.377625 445.656036 364.034668 489.998993 309.334839 489.998993 C 254.63501 489.998993 210.292038 445.656036 210.292038 390.956177 C 210.292038 336.256378 254.63501 291.913391 309.334839 291.913391 C 364.034668 291.913391 408.377625 336.256378 408.377625 390.956177 Z"/>
        <path id="path4" fill="#ffdd61" fill-rule="evenodd" stroke="none" d="M 309.404816 316.164978 C 350.533783 316.164978 383.879242 349.502319 383.879242 390.639374 C 383.879242 431.779602 350.533783 465.125671 309.404816 465.125671 C 268.268982 465.125671 234.924164 431.779602 234.924164 390.639374 C 234.924164 349.504822 268.268982 316.164978 309.404816 316.164978 Z"/>
        <path id="path5" fill="#e37e00" stroke="none" d="M 311.600037 348.513123 L 323.289642 375.886597 L 352.941437 378.547974 C 353.891479 378.628693 354.701202 379.269562 354.998016 380.175659 C 355.29483 381.081726 355.021179 382.077484 354.30307 382.704651 L 354.30307 382.705902 L 331.871124 402.293396 L 338.506714 431.327179 C 338.722107 432.273895 338.341644 433.256653 337.544922 433.811554 C 336.748199 434.366455 335.694489 434.382568 334.881165 433.852295 L 309.401703 418.618378 L 283.841003 433.900421 C 283.022919 434.389893 281.991669 434.343842 281.220459 433.783447 C 280.449249 433.223022 280.086945 432.256439 280.299805 431.327179 L 280.297302 431.325928 L 286.933533 402.292755 L 264.500366 382.705902 C 263.77182 382.068665 263.502014 381.053497 263.818054 380.138611 C 264.134094 379.223755 264.9729 378.591553 265.939453 378.539825 L 295.512512 375.886597 L 307.210236 348.498779 C 307.584869 347.61676 308.45166 347.045288 309.409912 347.048401 C 310.368134 347.051544 311.231171 347.628723 311.600037 348.513123 Z"/>
    </g>
</svg>
