<?xml version="1.0" encoding="UTF-8"?>
<!-- Generated by Pixelmator Pro 3.6.18 -->
<svg width="500" height="500" viewBox="0 0 500 500" xmlns="http://www.w3.org/2000/svg">
    <g id="Group">
        <path id="Rectangle-copy" fill="#000000" fill-rule="evenodd" stroke="none" d="M 56 165.597015 L 450.962677 165.597015 L 450.962677 105 L 56 105 Z"/>
        <path id="Rectangle-copy-2" fill="#000000" fill-rule="evenodd" stroke="none" d="M 56 279.216431 L 450.962677 279.216431 L 450.962677 218.619415 L 56 218.619415 Z"/>
        <path id="Rectangle-copy-3" fill="#000000" fill-rule="evenodd" stroke="none" d="M 56 395 L 450.962677 395 L 450.962677 334.402985 L 56 334.402985 Z"/>
    </g>
    <g id="medal-color-icon">
        <path id="Path" fill="#e37e00" fill-rule="evenodd" stroke="none" d="M 346.045532 56 L 344.029663 59.313751 L 316.165039 105.005554 L 214.371521 105.005554 L 184.62413 56.002502 Z"/>
        <path id="path1" fill="#ff6600" fill-rule="evenodd" stroke="none" d="M 348.220123 56 L 395.934662 115.84848 L 339.996063 211.881226 C 325.881927 195.701233 306.593781 184.155945 284.712341 179.81427 L 346.204865 59.313751 L 345.722473 60.103607 L 347.985779 56 L 348.220123 56 Z"/>
        <path id="path2" fill="#d0401b" fill-rule="evenodd" stroke="none" d="M 190.653595 211.903748 L 134.735001 115.84848 L 182.233337 56.002502 L 182.384567 56.002502 L 186.475021 62.99054 L 185.63269 61.602692 L 246.094177 179.788025 C 224.146515 184.110352 204.798996 195.678711 190.653595 211.903748 Z"/>
        <path id="path3" fill="#f5c800" fill-rule="evenodd" stroke="none" d="M 364.377625 276.956177 C 364.377625 331.656036 320.034668 375.998993 265.334839 375.998993 C 210.63501 375.998993 166.292038 331.656036 166.292038 276.956177 C 166.292038 222.256378 210.63501 177.913391 265.334839 177.913391 C 320.034668 177.913391 364.377625 222.256378 364.377625 276.956177 Z"/>
        <path id="path4" fill="#ffdd61" fill-rule="evenodd" stroke="none" d="M 265.404816 202.164978 C 306.533783 202.164978 339.879242 235.502319 339.879242 276.639374 C 339.879242 317.779602 306.533783 351.125671 265.404816 351.125671 C 224.268982 351.125671 190.924164 317.779602 190.924164 276.639374 C 190.924164 235.504822 224.268982 202.164978 265.404816 202.164978 Z"/>
        <path id="path5" fill="#e37e00" stroke="none" d="M 267.600037 234.513123 L 279.289642 261.886597 L 308.941437 264.547974 C 309.891479 264.628693 310.701202 265.269562 310.998016 266.175659 C 311.29483 267.081726 311.021179 268.077484 310.30307 268.704651 L 310.30307 268.705902 L 287.871124 288.293396 L 294.506714 317.327179 C 294.722107 318.273895 294.341644 319.256653 293.544922 319.811554 C 292.748199 320.366455 291.694489 320.382568 290.881165 319.852295 L 265.401703 304.618378 L 239.841003 319.900421 C 239.022919 320.389893 237.991669 320.343842 237.220459 319.783447 C 236.449249 319.223022 236.086945 318.256439 236.299805 317.327179 L 236.297302 317.325928 L 242.933533 288.292755 L 220.500366 268.705902 C 219.77182 268.068665 219.502014 267.053497 219.818054 266.138611 C 220.134094 265.223755 220.9729 264.591553 221.939453 264.539825 L 251.512512 261.886597 L 263.210236 234.498779 C 263.584869 233.61676 264.45166 233.045288 265.409912 233.048401 C 266.368134 233.051544 267.231171 233.628723 267.600037 234.513123 Z"/>
    </g>
</svg>
